<svg viewBox="0 0 640 400" data-background-color="#051726" preserveAspectRatio="xMidYMid meet" height="400" width="640" xmlns="http://www.w3.org/2000/svg" xmlns:xlink="http://www.w3.org/1999/xlink"><rect width="640" height="400" x="0" y="0" opacity="1" fill="#051726" data-fill-palette-color="background" id="background"></rect><g id="tight-bounds" transform="matrix(1,0,0,1,32,20)"><svg viewBox="0 0 576 360" height="360" width="576"><g><svg></svg></g><g><svg viewBox="0 0 576 360" height="360" width="576"><g><path d="M132.115 90l155.885-90 155.885 90v180l-155.885 90-155.885-90zM135.812 267.866l152.188 87.865 152.188-87.865v-175.732l-152.188-87.865-152.188 87.865z" fill="#ffffff" data-fill-palette-color="tertiary"></path></g><g transform="matrix(1,0,0,1,172.8,119.64759078782657)"><svg viewBox="0 0 230.4 120.70481842434684" height="120.70481842434684" width="230.4"><g><svg viewBox="0 0 231.552 121.30834251646857" height="120.70481842434684" width="230.4"><g><rect width="231.552" height="3.7155143115429388" x="0" y="66.6657322702201" fill="#ffffff" opacity="1" stroke-width="0" stroke="transparent" fill-opacity="1" class="rect-o-0" data-fill-palette-color="primary" rx="1%" id="o-0" data-palette-color="#ffffff"></rect></g><g transform="matrix(1,0,0,1,0.5759999999999934,80.10772383711104)"><svg viewBox="0 0 230.4 41.200618679357525" height="41.200618679357525" width="230.4"><g><svg viewBox="0 0 230.4 41.200618679357525" height="41.200618679357525" width="230.4"><g><svg viewBox="0 0 230.4 41.200618679357525" height="41.200618679357525" width="230.4"><g transform="matrix(1,0,0,1,0,0)"><svg width="230.4" viewBox="2 -36.209999084472656 205.19000244140625 36.70000076293945" height="41.200618679357525" data-palette-color="#ffffff"><path d="M26.54-3.76L26.54 0 2 0 2-3.25 20.95-31.96 2.59-31.96 2.59-35.69 26-35.69 26-32.45 7.06-3.76 26.54-3.76ZM60.18 0L55.88 0 51.44-11.35 37.13-11.35 32.74 0 28.54 0 42.65-35.84 46.14-35.84 60.18 0ZM38.6-15.09L50.14-15.09 45.99-26.15Q45.19-28.25 44.33-31.3L44.33-31.3Q43.8-28.96 42.8-26.15L42.8-26.15 38.6-15.09ZM64.72-35.69L74.16-17.85 83.69-35.69 88.18-35.69 76.26-13.84 76.26 0 72.07 0 72.07-13.65 60.18-35.69 64.72-35.69ZM104.07-32.01L104.07 0 99.92 0 99.92-32.01 88.62-32.01 88.62-35.69 115.37-35.69 115.37-32.01 104.07-32.01ZM140.64-3.71L140.64 0 120.74 0 120.74-35.69 140.64-35.69 140.64-32.01 124.89-32.01 124.89-20.51 139.69-20.51 139.69-16.85 124.89-16.85 124.89-3.71 140.64-3.71ZM163.83-32.5L163.83-32.5Q157.95-32.5 154.54-28.58 151.13-24.66 151.13-17.85L151.13-17.85Q151.13-10.84 154.42-7.02 157.7-3.2 163.78-3.2L163.78-3.2Q167.52-3.2 172.3-4.54L172.3-4.54 172.3-0.9Q168.59 0.49 163.15 0.49L163.15 0.49Q155.26 0.49 150.98-4.3 146.69-9.08 146.69-17.9L146.69-17.9Q146.69-23.41 148.75-27.56 150.82-31.71 154.71-33.96 158.61-36.21 163.88-36.21L163.88-36.21Q169.49-36.21 173.69-34.16L173.69-34.16 171.94-30.59Q167.88-32.5 163.83-32.5ZM207.19-35.69L207.19 0 203.04 0 203.04-16.8 184.24-16.8 184.24 0 180.09 0 180.09-35.69 184.24-35.69 184.24-20.51 203.04-20.51 203.04-35.69 207.19-35.69Z" opacity="1" transform="matrix(1,0,0,1,0,0)" fill="#ffffff" class="undefined-text-0" data-fill-palette-color="primary" id="text-0"></path></svg></g></svg></g></svg></g></svg></g><g transform="matrix(1,0,0,1,87.30637249256395,0)"><svg viewBox="0 0 56.9392550148721 56.9392550148721" height="56.9392550148721" width="56.9392550148721"><g><svg xmlns="http://www.w3.org/2000/svg" viewBox="16 16 480 480" style="enable-background:new 0 0 512 512" xml:space="preserve" x="0" y="0" height="56.9392550148721" width="56.9392550148721" class="icon-icon-0" data-fill-palette-color="accent" id="icon-0"><path d="M396 496H116c-5.523 0-10-4.478-10-10V26c0-5.523 4.477-10 10-10h280c5.522 0 10 4.477 10 10v460c0 5.522-4.478 10-10 10z m-270-20h260V36H126v440z" fill="#81ffd9" data-fill-palette-color="accent"></path><path d="M356 456H156c-5.523 0-10-4.478-10-10V66c0-5.523 4.477-10 10-10h200c5.522 0 10 4.477 10 10v380c0 5.522-4.478 10-10 10z m-190-20h180V76H166v360zM446 86h-50c-5.522 0-10-4.477-10-10V36c0-5.523 4.478-10 10-10h50c5.522 0 10 4.477 10 10v40c0 5.523-4.478 10-10 10z m-40-20h30V46h-30v20zM446 166h-50c-5.522 0-10-4.477-10-10v-40c0-5.523 4.478-10 10-10h50c5.522 0 10 4.477 10 10v40c0 5.523-4.478 10-10 10z m-40-20h30v-20h-30v20zM446 246h-50c-5.522 0-10-4.477-10-10v-40c0-5.523 4.478-10 10-10h50c5.522 0 10 4.477 10 10v40c0 5.523-4.478 10-10 10z m-40-20h30v-20h-30v20zM446 326h-50c-5.522 0-10-4.478-10-10v-40c0-5.522 4.478-10 10-10h50c5.522 0 10 4.478 10 10v40c0 5.522-4.478 10-10 10z m-40-20h30v-20h-30v20zM446 406h-50c-5.522 0-10-4.478-10-10v-40c0-5.522 4.478-10 10-10h50c5.522 0 10 4.478 10 10v40c0 5.522-4.478 10-10 10z m-40-20h30v-20h-30v20zM446 486h-50c-5.522 0-10-4.478-10-10v-40c0-5.522 4.478-10 10-10h50c5.522 0 10 4.478 10 10v40c0 5.522-4.478 10-10 10z m-40-20h30v-20h-30v20z" fill="#81ffd9" data-fill-palette-color="accent"></path><path d="M486 66h-40c-5.522 0-10-4.477-10-10s4.478-10 10-10h40c5.522 0 10 4.477 10 10s-4.478 10-10 10zM486 146h-40c-5.522 0-10-4.477-10-10s4.478-10 10-10h40c5.522 0 10 4.477 10 10s-4.478 10-10 10zM486 226h-40c-5.522 0-10-4.477-10-10s4.478-10 10-10h40c5.522 0 10 4.477 10 10s-4.478 10-10 10zM486 306h-40c-5.522 0-10-4.478-10-10s4.478-10 10-10h40c5.522 0 10 4.478 10 10s-4.478 10-10 10zM486 386h-40c-5.522 0-10-4.478-10-10s4.478-10 10-10h40c5.522 0 10 4.478 10 10s-4.478 10-10 10zM486 466h-40c-5.522 0-10-4.478-10-10s4.478-10 10-10h40c5.522 0 10 4.478 10 10s-4.478 10-10 10zM116 86H66c-5.523 0-10-4.477-10-10V36c0-5.523 4.477-10 10-10h50c5.523 0 10 4.477 10 10v40c0 5.523-4.477 10-10 10zM76 66h30V46H76v20zM116 166H66c-5.523 0-10-4.477-10-10v-40c0-5.523 4.477-10 10-10h50c5.523 0 10 4.477 10 10v40c0 5.523-4.477 10-10 10z m-40-20h30v-20H76v20zM116 246H66c-5.523 0-10-4.477-10-10v-40c0-5.523 4.477-10 10-10h50c5.523 0 10 4.477 10 10v40c0 5.523-4.477 10-10 10z m-40-20h30v-20H76v20zM116 326H66c-5.523 0-10-4.478-10-10v-40c0-5.522 4.477-10 10-10h50c5.523 0 10 4.478 10 10v40c0 5.522-4.477 10-10 10z m-40-20h30v-20H76v20zM116 406H66c-5.523 0-10-4.478-10-10v-40c0-5.522 4.477-10 10-10h50c5.523 0 10 4.478 10 10v40c0 5.522-4.477 10-10 10z m-40-20h30v-20H76v20zM116 486H66c-5.523 0-10-4.478-10-10v-40c0-5.522 4.477-10 10-10h50c5.523 0 10 4.478 10 10v40c0 5.522-4.477 10-10 10z m-40-20h30v-20H76v20z" fill="#81ffd9" data-fill-palette-color="accent"></path><path d="M66 66H26c-5.523 0-10-4.477-10-10s4.477-10 10-10h40c5.523 0 10 4.477 10 10s-4.477 10-10 10zM66 146H26c-5.523 0-10-4.477-10-10s4.477-10 10-10h40c5.523 0 10 4.477 10 10s-4.477 10-10 10zM66 226H26c-5.523 0-10-4.477-10-10s4.477-10 10-10h40c5.523 0 10 4.477 10 10s-4.477 10-10 10zM66 306H26c-5.523 0-10-4.478-10-10s4.477-10 10-10h40c5.523 0 10 4.478 10 10s-4.477 10-10 10zM66 386H26c-5.523 0-10-4.478-10-10s4.477-10 10-10h40c5.523 0 10 4.478 10 10s-4.477 10-10 10zM66 466H26c-5.523 0-10-4.478-10-10s4.477-10 10-10h40c5.523 0 10 4.478 10 10s-4.477 10-10 10zM316 166H196c-5.523 0-10-4.477-10-10v-50c0-5.523 4.477-10 10-10h120c5.522 0 10 4.477 10 10v50c0 5.523-4.478 10-10 10z m-110-20h100v-30H206v30zM316 246H196c-5.523 0-10-4.477-10-10v-40c0-5.523 4.477-10 10-10h120c5.522 0 10 4.477 10 10v40c0 5.523-4.478 10-10 10z m-110-20h100v-20H206v20zM316 326H196c-5.523 0-10-4.478-10-10v-40c0-5.522 4.477-10 10-10h120c5.522 0 10 4.478 10 10v40c0 5.522-4.478 10-10 10z m-110-20h100v-20H206v20zM316 416H196c-5.523 0-10-4.478-10-10v-50c0-5.522 4.477-10 10-10h120c5.522 0 10 4.478 10 10v50c0 5.522-4.478 10-10 10z m-110-20h100v-30H206v30z" fill="#81ffd9" data-fill-palette-color="accent"></path></svg></g></svg></g><g></g></svg></g></svg></g></svg></g></svg><rect width="576" height="360" fill="none" stroke="none" visibility="hidden"></rect></g><defs></defs></svg>